{"title":"Gnomeo &amp; Juliet 2011 TS XviD Feel-Free","uid":6188608,"size":583167321,"categoryP":"video","categoryS":"movies","magnet":"?xt=urn:btih:11ae759e03c31042f1445d1431daf28e766e6a67&amp;dn=Gnomeo+%26+Juliet+2011+TS+XviD+Feel-Free&amp;tr=udp%3A%2F%2Ftracker.openbittorrent.com%3A80&amp;tr=udp%3A%2F%2Fopen.demonii.com%3A1337&amp;tr=udp%3A%2F%2Ftracker.coppersurfer.tk%3A6969&amp;tr=udp%3A%2F%2Fexodus.desync.com%3A6969","seeders":1,"leechers":0,"uploader":"hiest","files":-1,"time":1298206942,"description":"Genre:Animation | Adventure | Comedy \nLanguage:English\nIMDb:http://www.imdb.com/title/tt0377981/\nSource:CiNEDUB/IMAGiNE Thx.\n\n\nFormat : AVI\nFormat/Info : Audio Video Interleave\nFile size : 554 MiB\nDuration : 1h 14mn\nOverall bit rate : 1 040 Kbps\n\n\nVideo\nCodec ID/Hint : XviD\nDuration : 1h 14mn\nBit rate : 903 Kbps\nWidth : 700 pixels\nHeight : 384 pixels\nDisplay aspect ratio : 16:9\nFrame rate : 25.000 fps\nColor space : YUV\nChroma subsampling : 4:2:0\nBit depth : 8 bits\nScan type : Progressive\nBits/(Pixel*Frame) : 0.134\nStream size : 480 MiB (87%)\nWriting library : XviD 1.2.1\n\nAudio\nID : 1\nFormat : MPEG Audio\nFormat version : Version 1\nFormat profile : Layer 3\nMode : Joint stereo\nMode extension : MS Stereo\nCodec ID : 55\nCodec ID/Hint : MP3\nDuration : 1h 14mn\nBit rate mode : Constant\nBit rate : 128 Kbps\nChannel(s) : 2 channels\nSampling rate : 44.1 KHz\nStream size : 68.1 MiB (12%)\nAlignment : Split accross interleaves\nInterleave, duration : 40 ms (1.00 video frame)\nInterleave, preload duration : 500 ms\n\n\nPlot:\nGarden gnomes Gnomeo (voice of McAvoy) and Juliet (voice of Blunt) have as many obstacles to overcome as their quasi namesakes when they are caught up in a feud between neighbors\n\n\n\n\n\n================================== &lt;a href=&quot;\nhttp://thepiratebay.se/user/hiest&quot; rel=&quot;nofollow&quot; target=&quot;_NEW&quot;&gt;\nhttp://thepiratebay.se/user/hiest&lt;/a&gt;\n==================================\n\n\n","torrent":{"xt":"urn:btih:11ae759e03c31042f1445d1431daf28e766e6a67","amp;dn":"Gnomeo+%26+Juliet+2011+TS+XviD+Feel-Free","amp;tr":["udp%3A%2F%2Ftracker.openbittorrent.com%3A80","udp%3A%2F%2Fopen.demonii.com%3A1337","udp%3A%2F%2Ftracker.coppersurfer.tk%3A6969","udp%3A%2F%2Fexodus.desync.com%3A6969"],"infoHash":"11ae759e03c31042f1445d1431daf28e766e6a67","infoHashBuffer":{"type":"Buffer","data":[17,174,117,158,3,195,16,66,241,68,93,20,49,218,242,142,118,110,106,103]},"announce":[],"urlList":[]}}